<svg width="25" height="25" viewBox="0 0 25 25" fill="none" xmlns="http://www.w3.org/2000/svg">
<path d="M13.9345 2.06985C14.1976 1.35884 15.2032 1.35884 15.4663 2.06985L17.217 6.80093C17.2997 7.02447 17.4759 7.20071 17.6995 7.28343L22.4305 9.03409C23.1416 9.29718 23.1416 10.3028 22.4305 10.5659L17.6995 12.3166C17.4759 12.3993 17.2997 12.5755 17.217 12.7991L15.4663 17.5302C15.2032 18.2412 14.1976 18.2412 13.9345 17.5302L12.1838 12.7991C12.1011 12.5755 11.9249 12.3993 11.7013 12.3166L6.97024 10.5659C6.25923 10.3028 6.25923 9.29718 6.97024 9.03409L11.7013 7.28343C11.9249 7.20071 12.1011 7.02447 12.1838 6.80093L13.9345 2.06985Z" fill="#E55540"/>
<path d="M5.33371 14.1017C5.46526 13.7462 5.96808 13.7462 6.09962 14.1017L7.19553 17.0633C7.23688 17.1751 7.32501 17.2632 7.43678 17.3046L10.3984 18.4005C10.7539 18.532 10.7539 19.0348 10.3984 19.1664L7.43678 20.2623C7.32501 20.3037 7.23688 20.3918 7.19553 20.5035L6.09962 23.4652C5.96807 23.8207 5.46526 23.8207 5.33371 23.4652L4.23781 20.5035C4.19645 20.3918 4.10833 20.3037 3.99656 20.2623L1.03492 19.1664C0.67942 19.0348 0.679421 18.532 1.03492 18.4005L3.99656 17.3046C4.10833 17.2632 4.19645 17.1751 4.23781 17.0633L5.33371 14.1017Z" fill="#E55540" fill-opacity="0.6"/>
<path d="M5.33391 1.03492C5.46545 0.679421 5.96827 0.679421 6.09982 1.03492L6.534 2.20828C6.57536 2.32005 6.66348 2.40817 6.77525 2.44953L7.94861 2.88371C8.30411 3.01526 8.30411 3.51807 7.94861 3.64962L6.77525 4.0838C6.66348 4.12516 6.57536 4.21328 6.534 4.32505L6.09982 5.49841C5.96827 5.85391 5.46545 5.85391 5.33391 5.49841L4.89972 4.32505C4.85837 4.21328 4.77024 4.12516 4.65848 4.0838L3.48512 3.64962C3.12962 3.51807 3.12962 3.01526 3.48512 2.88371L4.65847 2.44953C4.77024 2.40817 4.85837 2.32005 4.89972 2.20828L5.33391 1.03492Z" fill="#E55540" fill-opacity="0.4"/>
</svg>
